<svg xmlns="http://www.w3.org/2000/svg" xmlns:xlink="http://www.w3.org/1999/xlink" viewBox="0,0,255.99535,255.99535" width="55px" height="55px"><defs><linearGradient x1="31.529" y1="2.341" x2="32.474" y2="61.628" gradientUnits="userSpaceOnUse" id="color-1"><stop offset="0" stop-color="#1a6dff"></stop><stop offset="1" stop-color="#c822ff"></stop></linearGradient><linearGradient x1="31.713" y1="14.002" x2="32.287" y2="49.998" gradientUnits="userSpaceOnUse" id="color-2"><stop offset="0" stop-color="#6dc7ff"></stop><stop offset="1" stop-color="#e6abff"></stop></linearGradient></defs><g fill-opacity="0" fill="#dddddd" fill-rule="nonzero" stroke="none" stroke-width="1" stroke-linecap="butt" stroke-linejoin="miter" stroke-miterlimit="10" stroke-dasharray="" stroke-dashoffset="0" font-family="none" font-weight="none" font-size="none" text-anchor="none" style="mix-blend-mode: normal"><path d="M0,255.99535v-255.99535h255.99535v255.99535z" id="bgRectangle"></path></g><g fill="none" fill-rule="nonzero" stroke="none" stroke-width="1" stroke-linecap="butt" stroke-linejoin="miter" stroke-miterlimit="10" stroke-dasharray="" stroke-dashoffset="0" font-family="none" font-weight="none" font-size="none" text-anchor="none" style="mix-blend-mode: normal"><g transform="scale(4,4)"><path d="M61.948,30.246c-0.117,-1.818 -1.454,-3.291 -3.245,-3.58c-1.017,-0.172 -2.229,-0.369 -3.229,-0.531l-0.234,-0.038c-0.627,-0.101 -1.134,-0.54 -1.325,-1.145c-0.366,-1.172 -0.847,-2.338 -1.428,-3.472c-0.292,-0.56 -0.244,-1.225 0.131,-1.745c0.604,-0.856 1.388,-1.939 2.035,-2.836c1.069,-1.481 0.973,-3.473 -0.242,-4.855c-0.793,-0.879 -1.624,-1.704 -2.473,-2.46c-1.37,-1.204 -3.358,-1.3 -4.827,-0.237c-0.907,0.646 -1.996,1.431 -2.851,2.048c-0.513,0.372 -1.184,0.42 -1.747,0.126c-1.09,-0.569 -2.253,-1.054 -3.464,-1.444c-0.602,-0.189 -1.039,-0.693 -1.141,-1.327c-0.177,-1.033 -0.39,-2.352 -0.567,-3.444c-0.292,-1.803 -1.768,-3.144 -3.605,-3.262c-1.181,-0.06 -2.353,-0.057 -3.489,0.009c-1.818,0.117 -3.291,1.454 -3.58,3.245c-0.172,1.017 -0.369,2.229 -0.531,3.229l-0.037,0.233c-0.101,0.627 -0.54,1.134 -1.145,1.324c-1.172,0.367 -2.338,0.847 -3.472,1.428c-0.56,0.294 -1.224,0.244 -1.745,-0.131c-0.856,-0.604 -1.939,-1.388 -2.836,-2.035c-1.482,-1.07 -3.473,-0.973 -4.855,0.242c-0.879,0.793 -1.704,1.624 -2.46,2.473c-1.203,1.369 -1.299,3.356 -0.237,4.827c0.646,0.907 1.431,1.997 2.048,2.851c0.372,0.514 0.42,1.184 0.126,1.747c-0.569,1.09 -1.054,2.253 -1.444,3.464c-0.189,0.602 -0.693,1.039 -1.326,1.141c-1.033,0.177 -2.352,0.39 -3.445,0.567c-1.803,0.292 -3.144,1.768 -3.262,3.605c-0.06,1.182 -0.058,2.353 0.009,3.489c0.117,1.818 1.454,3.291 3.245,3.58c1.017,0.172 2.229,0.369 3.229,0.531l0.232,0.037c0.627,0.101 1.134,0.54 1.324,1.145c0.367,1.172 0.847,2.338 1.428,3.472c0.292,0.56 0.245,1.226 -0.131,1.745c-0.604,0.856 -1.388,1.939 -2.035,2.837c-1.069,1.481 -0.973,3.473 0.242,4.855c0.793,0.879 1.624,1.704 2.473,2.46c1.369,1.202 3.356,1.298 4.827,0.237c0.907,-0.646 1.996,-1.431 2.851,-2.048c0.515,-0.372 1.183,-0.42 1.747,-0.126c1.09,0.569 2.253,1.054 3.464,1.444c0.602,0.189 1.039,0.693 1.141,1.327c0.177,1.033 0.39,2.352 0.567,3.445c0.292,1.803 1.768,3.144 3.605,3.262c0.561,0.031 1.118,0.045 1.673,0.045c0.613,0 1.219,-0.018 1.815,-0.053c1.818,-0.117 3.291,-1.454 3.58,-3.245c0.172,-1.017 0.369,-2.229 0.531,-3.229l0.038,-0.234c0.101,-0.627 0.54,-1.134 1.145,-1.324c1.172,-0.367 2.338,-0.847 3.472,-1.428c0.561,-0.293 1.226,-0.243 1.745,0.131c0.856,0.604 1.939,1.388 2.836,2.035c1.482,1.069 3.472,0.972 4.855,-0.242c0.879,-0.793 1.704,-1.624 2.46,-2.473c1.203,-1.369 1.299,-3.356 0.237,-4.827c-0.646,-0.907 -1.431,-1.997 -2.048,-2.851c-0.372,-0.514 -0.42,-1.184 -0.126,-1.747c0.569,-1.09 1.054,-2.253 1.444,-3.464c0.189,-0.602 0.693,-1.039 1.327,-1.141c1.033,-0.177 2.352,-0.39 3.445,-0.567c1.803,-0.292 3.144,-1.768 3.262,-3.605c0.062,-1.183 0.06,-2.354 -0.007,-3.49zM59.739,33.612c-0.05,0.78 -0.625,1.413 -1.397,1.538c-1.099,0.177 -2.427,0.391 -3.455,0.568c-1.459,0.237 -2.639,1.259 -3.079,2.661c-0.349,1.084 -0.786,2.13 -1.297,3.108c-0.687,1.313 -0.575,2.875 0.292,4.076c0.614,0.85 1.397,1.935 2.043,2.844c0.457,0.63 0.416,1.48 -0.094,2.06c-0.698,0.784 -1.467,1.556 -2.274,2.286c-0.586,0.517 -1.44,0.557 -2.075,0.1c-0.903,-0.652 -1.993,-1.439 -2.845,-2.041c-1.199,-0.864 -2.758,-0.977 -4.06,-0.297c-1.014,0.52 -2.062,0.951 -3.114,1.28c-1.414,0.443 -2.439,1.628 -2.675,3.089l-0.038,0.234c-0.161,0.994 -0.357,2.202 -0.529,3.221c-0.125,0.769 -0.754,1.341 -1.524,1.39c-1.049,0.061 -2.137,0.064 -3.225,0.009c-0.78,-0.05 -1.413,-0.626 -1.538,-1.398c-0.177,-1.099 -0.391,-2.427 -0.568,-3.455c-0.237,-1.459 -1.259,-2.639 -2.661,-3.079c-1.084,-0.349 -2.13,-0.786 -3.108,-1.297c-0.572,-0.298 -1.19,-0.446 -1.805,-0.446c-0.799,0 -1.593,0.248 -2.271,0.738c-0.85,0.614 -1.935,1.397 -2.844,2.043c-0.63,0.458 -1.48,0.414 -2.06,-0.094c-0.784,-0.698 -1.556,-1.467 -2.286,-2.274c-0.517,-0.587 -0.558,-1.441 -0.1,-2.075c0.652,-0.903 1.439,-1.993 2.041,-2.845c0.866,-1.199 0.978,-2.758 0.297,-4.06c-0.52,-1.014 -0.951,-2.062 -1.28,-3.114c-0.443,-1.414 -1.628,-2.439 -3.089,-2.675l-0.235,-0.038c-0.994,-0.161 -2.202,-0.357 -3.221,-0.529c-0.769,-0.124 -1.341,-0.754 -1.39,-1.524c-0.061,-1.049 -0.063,-2.139 -0.009,-3.225c0.05,-0.78 0.626,-1.413 1.398,-1.538c1.099,-0.177 2.427,-0.391 3.455,-0.568c1.459,-0.237 2.639,-1.259 3.079,-2.661c0.349,-1.084 0.785,-2.13 1.297,-3.108c0.687,-1.313 0.574,-2.875 -0.292,-4.076c-0.614,-0.85 -1.396,-1.935 -2.043,-2.844c-0.457,-0.63 -0.416,-1.48 0.094,-2.06c0.698,-0.784 1.467,-1.557 2.274,-2.286c0.588,-0.517 1.44,-0.558 2.076,-0.1c0.903,0.652 1.993,1.439 2.845,2.041c1.198,0.865 2.758,0.978 4.06,0.297c1.014,-0.52 2.062,-0.951 3.114,-1.28c1.414,-0.443 2.439,-1.628 2.675,-3.089l0.038,-0.234c0.161,-0.994 0.357,-2.202 0.529,-3.221c0.124,-0.769 0.754,-1.341 1.524,-1.39c1.048,-0.061 2.138,-0.063 3.225,-0.009c0.78,0.05 1.413,0.626 1.538,1.398c0.177,1.099 0.391,2.427 0.568,3.455c0.237,1.459 1.259,2.639 2.661,3.079c1.084,0.349 2.13,0.786 3.107,1.297c1.312,0.686 2.874,0.573 4.077,-0.292c0.85,-0.614 1.935,-1.397 2.844,-2.043c0.631,-0.457 1.481,-0.414 2.06,0.094c0.784,0.698 1.557,1.467 2.287,2.274c0.517,0.587 0.558,1.441 0.1,2.075c-0.652,0.903 -1.439,1.993 -2.041,2.845c-0.866,1.199 -0.978,2.758 -0.296,4.06c0.52,1.014 0.951,2.062 1.28,3.114c0.443,1.414 1.628,2.439 3.089,2.675l0.234,0.038c0.994,0.161 2.202,0.357 3.221,0.529c0.769,0.124 1.341,0.754 1.39,1.524c0.059,1.048 0.061,2.138 0.006,3.225z" fill="url(#color-1)"></path><path d="M32,14c-9.93,0 -18,8.07 -18,18c0,9.93 8.07,18 18,18c9.93,0 18,-8.07 18,-18c0,-9.93 -8.07,-18 -18,-18zM39,38l-1,1v1h-1l-1,-1v-0.66l-2.87,2.07c0.07,0.14 0.18,0.26 0.32,0.35l2.1,1.41c0.37,0.24 0.53,0.7 0.41,1.12c-0.13,0.42 -0.52,0.71 -0.96,0.71h-6c-0.44,0 -0.83,-0.29 -0.96,-0.71c-0.12,-0.42 0.04,-0.88 0.41,-1.12l2.1,-1.41c0.28,-0.18 0.45,-0.5 0.45,-0.83v-2.42l-2.62,-1.89l-0.38,0.38v1h-1l-1,-1v-1l-1,-1v-1h1l1,-1h1l1,1v1.42l2,0.98v-5.4h-1l-1,-1h-1l-1,-1h-1v-2l1,-1l-1,-1v-1l1,-1v-1l2,-1l1,1l1,-1v-1h1l1,1h1l1,1h1l1,2l1,1v1l-1,1v2l-1,1v1h-1l-1,-1l-1,1v8.4l1.61,-0.79l-0.61,-0.61l1,-1h1l1,-1h1v1l1,1z" fill="url(#color-2)"></path></g></g></svg>